<svg width="512" height="512" viewBox="0 0 512 512" fill="none" xmlns="http://www.w3.org/2000/svg">
  <rect width="512" height="512" rx="128" fill="#5a67d8"/>
  
  <!-- Memory thread visualization -->
  <g transform="translate(96, 96) scale(0.8)">
    <!-- Memory thread line -->
    <line x1="50" y1="160" x2="350" y2="160" stroke="white" stroke-width="10" stroke-linecap="round"/>
    
    <!-- Memory points -->
    <circle cx="100" cy="160" r="20" fill="#10B981" stroke="white" stroke-width="4" />
    <circle cx="200" cy="160" r="20" fill="#F59E0B" stroke="white" stroke-width="4" />
    <circle cx="300" cy="160" r="20" fill="#EF4444" stroke="white" stroke-width="4" />
    
    <!-- Book/diary visual element -->
    <g transform="translate(160, 240)">
      <rect x="0" y="0" width="80" height="100" rx="4" fill="#805ad5" stroke="white" stroke-width="4"/>
      <line x1="40" y1="0" x2="40" y2="100" stroke="white" stroke-width="4" stroke-linecap="round"/>
      <line x1="10" y1="20" x2="30" y2="20" stroke="white" stroke-width="2" stroke-linecap="round"/>
      <line x1="10" y1="40" x2="30" y2="40" stroke="white" stroke-width="2" stroke-linecap="round"/>
      <line x1="10" y1="60" x2="30" y2="60" stroke="white" stroke-width="2" stroke-linecap="round"/>
      <line x1="10" y1="80" x2="30" y2="80" stroke="white" stroke-width="2" stroke-linecap="round"/>
      <line x1="50" y1="20" x2="70" y2="20" stroke="white" stroke-width="2" stroke-linecap="round"/>
      <line x1="50" y1="40" x2="70" y2="40" stroke="white" stroke-width="2" stroke-linecap="round"/>
      <line x1="50" y1="60" x2="70" y2="60" stroke="white" stroke-width="2" stroke-linecap="round"/>
      <line x1="50" y1="80" x2="70" y2="80" stroke="white" stroke-width="2" stroke-linecap="round"/>
    </g>
  </g>
</svg> 